<svg width="160" height="160" viewBox="0 0 160 160" fill="none" xmlns="http://www.w3.org/2000/svg">
  <rect width="160" height="160" rx="0" fill="#F5821F"/>
  <circle cx="80" cy="80" r="56" fill="white"/>
  <g fill="#F26A2E">
    <path d="M79.7 47.5c8.7 0 15.6 2.9 20.9 7.7-2.9-.4-5.8-.2-8.7.7 3.6 1.2 6.7 3.1 8.9 6.2-2.6-.9-5.4-1.1-8.1-.7 3.3 1.8 5.8 4.4 7.2 8-2.1-.9-4.4-1.3-6.8-1 2.8 2.7 4.3 6 4.6 9.9-1.8-1.3-3.8-2-6-2.2 1.7 2.6 2.6 5.3 2.6 8.5 0 15.2-14.2 27.5-31.8 27.5S31.6 99.8 31.6 84.6c0-3.1.8-5.9 2.5-8.5-2.2.2-4.2 1-6 2.2.2-3.9 1.8-7.2 4.6-9.9-2.4-.3-4.7.1-6.8 1 1.4-3.6 3.9-6.2 7.2-8-2.7-.4-5.5-.2-8.1.7 2.2-3.1 5.3-5 8.9-6.2-2.9-.9-5.8-1.1-8.7-.7 5.3-4.8 12.2-7.7 20.9-7.7 6 0 11.5 1.6 16 4.7 4.4-3.1 9.9-4.7 15.9-4.7Z"/>
    <path d="M54.2 73.2c3.6 0 6.5 2.9 6.5 6.6 0 3.6-2.9 6.5-6.5 6.5-3.7 0-6.6-2.9-6.6-6.5 0-3.7 2.9-6.6 6.6-6.6Zm51 0c3.6 0 6.6 2.9 6.6 6.6 0 3.6-3 6.5-6.6 6.5-3.7 0-6.6-2.9-6.6-6.5 0-3.7 2.9-6.6 6.6-6.6Z"/>
    <path d="M64.3 93.5c3.4 2.5 8.4 3.9 13.8 3.9 5.7 0 10.9-1.5 14.4-4.3 1 7.6-4.6 14.4-13.3 16-9.3 1.8-18.1-3-20.4-10.7-.5-1.7-.7-3.3-.5-4.9Z"/>
    <path d="M69.2 84.5c1.6 1 4.2 1.6 6.9 1.6 2.9 0 5.5-.7 7.1-1.9 1.7 1.1 4.1 1.7 6.7 1.7-1.6 3.8-6 6.6-11.3 6.6-5.1 0-9.5-2.7-11-6.4.5 0 1.1-.1 1.6-.2Z"/>
  </g>
  <path d="M54 31.5c7.9-4.6 16.6-6.9 26-6.9 9 0 17.3 2.2 24.8 6.5" stroke="#F26A2E" stroke-width="4" stroke-linecap="round"/>
  <path d="M44.5 43.5c4.9-5.4 10.6-9.3 17.1-11.8" stroke="#F26A2E" stroke-width="3.4" stroke-linecap="round"/>
  <path d="M115.5 43.5c-4.9-5.4-10.6-9.3-17.1-11.8" stroke="#F26A2E" stroke-width="3.4" stroke-linecap="round"/>
  <path d="M57 125c8.2 5.3 16.6 7.8 25.6 7.8 8.2 0 15.9-2.1 23.3-6.3" stroke="#F26A2E" stroke-width="4" stroke-linecap="round"/>
  <path d="M51.4 40.1 62 44.4" stroke="#F26A2E" stroke-width="3" stroke-linecap="round"/>
  <path d="M108.6 40.1 98 44.4" stroke="#F26A2E" stroke-width="3" stroke-linecap="round"/>
  <text x="80" y="38" text-anchor="middle" font-size="15" font-family="Georgia, serif" font-weight="700" fill="#F26A2E" transform="rotate(-9 80 38)">Simba</text>
  <text x="80" y="129" text-anchor="middle" font-size="14" font-family="Georgia, serif" font-weight="700" fill="#F26A2E" transform="rotate(9 80 129)">Supermarket</text>
</svg>
